<?xml version="1.0" encoding="iso-8859-1"?>
<!-- Generator: Adobe Illustrator 19.0.0, SVG Export Plug-In . SVG Version: 6.00 Build 0)  -->
<svg xmlns="http://www.w3.org/2000/svg" xmlns:xlink="http://www.w3.org/1999/xlink" version="1.1" id="Layer_1" x="0px" y="0px" viewBox="0 0 511.999 511.999" style="enable-background:new 0 0 511.999 511.999;" xml:space="preserve" width="512px" height="512px">
<g>
	<g>
		<path d="M506.999,5.106c-3.542-3.541-8.392-5.348-13.419-4.949l-39.077,3.085c-4.049,0.318-7.861,2.076-10.734,4.949l-4.665,4.665    c0,0-5.33-5.979-11.031-0.278c-5.701,5.701,0.278,11.031,0.278,11.031l-5.704,5.704c0,0-5.608-5.701-11.031-0.278    c-5.423,5.423,0.278,11.031,0.278,11.031l-5.586,5.586c-3.125,3.125-4.9,7.279-4.998,11.697c0,0-0.434,20.891-0.426,21.173    l-61.202,53.619c-16.63-11.064-35.213-18.301-54.86-21.228c-4.152-0.626-8.023,2.246-8.641,6.401    c-0.618,4.154,2.247,8.023,6.401,8.641c25.663,3.823,49.342,15.958,68.476,35.093c21.55,21.55,34.384,49.418,36.138,78.47    c0.874,14.489-1.046,28.515-5.707,41.69c-4.91,13.877-12.63,26.143-22.945,36.457c-11.428,11.428-26.592,18.41-33.067,21.39    c-1.321,0.608-18.273,5.495-19.264,33.709c-1.176,33.471-14.396,64.364-37.027,86.996c-13.374,13.373-29.312,23.349-47.372,29.652    c-17.193,6-35.534,8.41-54.516,7.16c-38.232-2.514-75.015-19.629-103.575-48.191c-28.56-28.56-45.675-65.343-48.192-103.572    c-1.25-18.981,1.159-37.322,7.16-54.516c6.303-18.06,16.28-33.998,29.653-47.372c22.626-22.626,53.513-35.776,86.969-37.027    c0,0,25.984,0.31,32.566-16.842c0.531-1.384,9.434-22.365,22.558-35.49c10.315-10.315,22.581-18.035,36.458-22.945    c3.959-1.4,6.032-5.746,4.631-9.705c-1.4-3.959-5.746-6.034-9.705-4.631c-16.031,5.672-30.208,14.597-42.139,26.528    c-14.914,14.913-23.386,34.227-25.82,40.329c-0.435,0.705-4.301,6.218-19.315,7.566c-37.228,1.439-71.657,16.159-96.96,41.463    c-15.005,15.005-26.194,32.876-33.258,53.114c-6.677,19.133-9.361,39.497-7.976,60.526c2.76,41.911,21.444,82.158,52.614,113.327    c31.17,31.17,71.416,49.855,113.326,52.614c3.585,0.236,35.009,1.198,60.527-7.976c20.172-7.253,38.108-18.253,53.114-33.258    c25.355-25.355,38.706-59.946,41.474-97.272c1.253-16.895,9.371-19.887,10.424-20.372c7.215-3.321,24.109-11.1,37.46-24.451    c11.931-11.93,20.856-26.108,26.528-42.139c5.345-15.106,7.549-31.147,6.551-47.679c-1.417-23.483-9.221-46.244-22.429-66.157    l53.631-61.215c0.157,0.004,21.18-0.433,21.18-0.433c4.418-0.098,8.572-1.874,11.696-4.998l5.586-5.586    c0,0,5.175,6.134,11.031,0.278c5.856-5.856-0.278-11.031-0.278-11.031l5.704-5.704c0,0,5.623,5.687,11.031,0.278    c5.409-5.409-0.278-11.031-0.278-11.031l4.665-4.665c2.871-2.871,4.629-6.682,4.949-10.732l3.085-39.077    C512.342,13.538,510.538,8.646,506.999,5.106z M370.834,160.205c-2.837-3.418-8.209-11.571-18.714-18.743l56-49.062l11.599,11.599    L370.834,160.205z M493.159,57.582l-37.464,37.464c-0.342,0.342-21.65,0.999-21.65,0.999c-0.491,0-0.972-0.2-1.32-0.547    l-16.118-16.118c-0.359-0.359,0.108-22.629,0.45-22.972l37.463-37.463c0.314-0.314,40.256-3.628,40.256-3.628    c0.049-0.004,1.12,0.194,1.469,0.541c0.387,0.387,0.585,0.923,0.541,1.469C496.787,17.327,493.474,57.268,493.159,57.582z" fill="#2a333c"/>
	</g>
</g>
<g>
	<g>
		<path d="M278.311,233.792c-8.3-8.302-19.337-12.873-31.077-12.873c-11.74,0-22.775,4.571-31.077,12.873    c-8.302,8.3-12.873,19.337-12.873,31.077c0,11.74,4.571,22.776,12.873,31.077c8.3,8.302,19.337,12.873,31.077,12.873    c11.739,0,22.776-4.571,31.077-12.873c8.302-8.3,12.873-19.337,12.873-31.077C291.184,253.13,286.613,242.093,278.311,233.792z     M267.558,285.192c-5.428,5.428-12.646,8.418-20.323,8.418s-14.895-2.99-20.323-8.418c-5.428-5.428-8.418-12.646-8.418-20.323    c0-7.677,2.99-14.895,8.418-20.323c5.428-5.428,12.646-8.418,20.323-8.418s14.895,2.99,20.323,8.418s8.418,12.646,8.418,20.323    C275.976,272.546,272.986,279.764,267.558,285.192z" fill="#2a333c"/>
	</g>
</g>
<g>
	<g>
		<path d="M260.403,109.615c-3.387,0.147-6.797,0.437-10.131,0.863c-4.166,0.531-7.024,4.329-6.58,8.505    c0.818,7.685,8.179,6.623,8.505,6.58c2.916-0.372,5.898-0.626,8.863-0.754c4.195-0.182,7.45-3.73,7.268-7.925    S264.611,109.442,260.403,109.615z" fill="#2a333c"/>
	</g>
</g>
<g>
	<g>
		<path d="M193.779,405.946l-12.058-12.058l10.128-10.128c2.97-2.97,2.97-7.784,0-10.753c-2.97-2.97-7.784-2.97-10.753,0    l-10.127,10.128l-15.623-15.623l22.773-22.773c2.97-2.97,2.97-7.784,0-10.753c-2.97-2.97-7.784-2.97-10.753,0l-22.773,22.773    l-15.623-15.623l35.056-35.058c2.97-2.97,2.97-7.784,0-10.753c-2.97-2.97-7.784-2.97-10.753,0l-35.057,35.058l-12.058-12.058    c-4.331-4.331-10.091-6.717-16.217-6.717c-6.126,0-11.884,2.386-16.216,6.717s-6.717,10.091-6.717,16.217    c0,6.126,2.386,11.885,6.717,16.216l87.621,87.621c4.331,4.331,10.09,6.717,16.216,6.717c6.126,0,11.885-2.386,16.217-6.717    c4.331-4.331,6.717-10.091,6.717-16.217C200.496,416.037,198.111,410.278,193.779,405.946z M183.024,427.626    c-1.459,1.459-3.399,2.262-5.463,2.262c-2.063,0-4.004-0.803-5.463-2.262l-87.621-87.622c-1.459-1.459-2.263-3.398-2.263-5.462    c0-2.064,0.803-4.004,2.263-5.463c1.459-1.459,3.398-2.263,5.462-2.263c2.063,0,4.004,0.804,5.463,2.263l87.621,87.621    c1.46,1.459,2.264,3.399,2.264,5.463C185.287,424.226,184.483,426.167,183.024,427.626z" fill="#2a333c"/>
	</g>
</g>
<g>
	<g>
		<path d="M462.52,36.853l-4.439-4.439c-1.578-1.578-4.158-1.578-5.735,0l-4.439,4.439c-1.578,1.578-1.578,4.158,0,5.735    l4.439,4.439c1.578,1.578,4.158,1.578,5.735,0l4.439-4.439C464.097,41.011,464.097,38.431,462.52,36.853z" fill="#2a333c"/>
	</g>
</g>
<g>
	<g>
		<path d="M479.689,54.024l-4.439-4.439c-1.578-1.578-4.158-1.578-5.735,0l-4.439,4.439c-1.578,1.578-1.578,4.158,0,5.735    l4.439,4.439c1.578,1.578,4.158,1.578,5.735,0l4.439-4.439C481.267,58.182,481.267,55.601,479.689,54.024z" fill="#2a333c"/>
	</g>
</g>
<g>
	<g>
		<path d="M463.231,70.481l-4.439-4.439c-1.578-1.578-4.158-1.578-5.735,0l-4.439,4.439c-1.578,1.578-1.578,4.158,0,5.735    l4.439,4.439c1.578,1.578,4.158,1.578,5.735,0l4.439-4.439C464.809,74.639,464.809,72.058,463.231,70.481z" fill="#2a333c"/>
	</g>
</g>
<g>
	<g>
		<path d="M446.062,53.312l-4.439-4.439c-1.578-1.578-4.158-1.578-5.735,0l-4.439,4.439c-1.578,1.578-1.578,4.158,0,5.735    l4.439,4.439c1.578,1.578,4.158,1.578,5.735,0l4.439-4.439C447.639,57.47,447.639,54.89,446.062,53.312z" fill="#2a333c"/>
	</g>
</g>
<g>
	<g>
		<path d="M303.604,208.5c-15.035-15.035-35.054-23.315-56.369-23.315c-21.315,0-41.334,8.28-56.37,23.316    c-31.082,31.082-31.082,81.655,0,112.737c15.036,15.036,35.054,23.316,56.37,23.316c21.314,0,41.333-8.28,56.369-23.316    C334.686,290.156,334.686,239.582,303.604,208.5z M292.851,310.484c-12.163,12.162-28.363,18.861-45.616,18.861    s-33.452-6.699-45.616-18.861c-25.153-25.152-25.153-66.077,0-91.23c12.162-12.162,28.363-18.861,45.616-18.861    s33.452,6.699,45.616,18.86C318.004,244.406,318.004,285.331,292.851,310.484z" fill="#2a333c"/>
	</g>
</g>
<g>
</g>
<g>
</g>
<g>
</g>
<g>
</g>
<g>
</g>
<g>
</g>
<g>
</g>
<g>
</g>
<g>
</g>
<g>
</g>
<g>
</g>
<g>
</g>
<g>
</g>
<g>
</g>
<g>
</g>
</svg>
