<?xml version="1.0" encoding="iso-8859-1"?>
<!-- Generator: Adobe Illustrator 19.0.0, SVG Export Plug-In . SVG Version: 6.00 Build 0)  -->
<svg xmlns="http://www.w3.org/2000/svg" xmlns:xlink="http://www.w3.org/1999/xlink" version="1.1" id="Layer_1" x="0px" y="0px" viewBox="0 0 512.001 512.001" style="enable-background:new 0 0 512.001 512.001;" xml:space="preserve" width="512px" height="512px">
<g>
	<g>
		<path d="M440.636,13.592C424.347,4.7,405.986,0,387.538,0c-40.681,0-78.05,22.161-97.525,57.836    c-14.436,26.444-22.691,67.276-21.029,104.026c1.105,24.442,6.219,45.099,14.86,60.979c-12.964,19.984-4,37.205-2.913,39.35    c-8.008,11.992-16.464,24.976-24.917,38.15c-9.059-14.116-17.416-26.91-24.923-38.151c1.086-2.144,11.74-22.069-2.914-39.349    c8.64-15.879,13.755-36.537,14.86-60.979c1.662-36.75-6.593-77.582-21.029-104.026C192.678,4.111,125.11-15.736,71.384,13.592    C50.276,25.116,33.815,42.72,23.782,64.5c-1.757,3.814-0.09,8.331,3.725,10.088c3.814,1.757,8.33,0.088,10.087-3.725    c8.656-18.789,22.86-33.977,41.077-43.922c36.243-19.787,79.786-13.638,109.161,12.135c-18.33,23.473-42.519,43.777-70.345,58.968    c-27.821,15.189-57.978,24.554-87.633,27.279c-1.68-11.119-1.409-22.526,0.901-33.682c0.853-4.112-1.792-8.136-5.903-8.989    c-4.109-0.846-8.136,1.792-8.988,5.904c-5.327,25.71-1.323,52.581,11.276,75.66c14.436,26.444,44.319,55.469,76.128,73.947    c21.157,12.288,41.293,19.149,59.322,20.469c5.718,17.819,19.469,22.461,31.511,23.698c8.334,19.146,18.624,41.86,30.609,67.572    c-10.858,17.426-20.551,33.197-27.796,45.053c-2.19,3.583-0.959,8.106,2.523,10.454c3.596,2.425,9.021-0.178,10.454-2.524    c18.312-29.965,52.295-84.991,81.112-128.384c5.127,3.093,9.123,5.371,11.097,6.046c-35.482,80.951-92.999,197.092-98.018,206.286    c-5.052,9.258-16.699,12.68-25.957,7.624c-4.485-2.449-15.14-12.864-7.624-25.957c0.86-1.499,4.442-7.713,11.899-20.184    c2.156-3.604,0.981-8.273-2.623-10.429c-3.602-2.154-8.273-0.981-10.429,2.623c-6.328,10.581-11,18.514-12.196,20.703    c-14.191,25.956,5.635,42.198,13.685,46.593c5.211,2.845,10.839,4.193,16.396,4.193c12.165,0,23.97-6.472,30.197-17.88    c2.561-4.692,18.673-36.982,38.581-78.273c20.462,42.437,36.25,74.012,38.575,78.273C300.816,505.53,312.618,512,324.784,512    c5.555,0,11.183-1.356,16.396-4.193c10.285-5.598,26.018-23.002,13.685-46.593c-2.975-5.69-32.752-55.452-67.555-111.315    c10.917-23.423,21.556-46.778,30.606-67.569c12.042-1.238,24.61-4.358,31.525-23.728c50.544-3.858,112.052-51.551,135.437-94.387    C514.208,110.491,494.36,42.921,440.636,13.592z M54.237,176.992c-5.487-6.714-16.55-21.362-20.874-36.745    c31.025-3.158,62.438-13.037,91.411-28.854c28.981-15.821,54.285-36.907,73.722-61.304c10.875,10.237,16.924,29.202,19.602,37.449    c-18.582,24.713-43.584,46.067-72.563,61.887C116.556,165.244,85.074,174.727,54.237,176.992z M66.947,190.992    c29.218-3.721,58.616-13.337,85.876-28.218c27.261-14.882,51.248-34.409,70.179-56.974c3.505,16.163,5.27,33.698,4.906,50.666    c-15.944,16.453-34.625,30.59-55.583,42.03c-20.958,11.442-42.951,19.51-65.415,24.024    C92.441,213.65,78.646,202.681,66.947,190.992z M127.152,233.285c17.962-5.031,35.538-12.202,52.459-21.44    c16.922-9.237,32.457-20.143,46.403-32.53c-3.947,26.262-14.105,48.605-32.227,58.499    C175.663,247.706,151.376,244.167,127.152,233.285z M179.639,258.144c7.725-1.097,14.908-3.419,21.437-6.983    c6.522-3.561,12.348-8.35,17.446-14.247c4.876,14.331-4.845,24.886-10.078,27.742C198.58,270.039,186.324,267.056,179.639,258.144    z M234.333,334.521c-9.309-20.093-17.491-38.183-24.413-53.974c6.378-2.183,9.45-4.745,11.097-6.046    c7.838,11.802,16.55,25.201,25.981,39.964C242.71,321.213,238.47,327.931,234.333,334.521z M341.517,468.5    c6.079,11.403-3.139,23.509-7.624,25.957c-9.261,5.054-20.903,1.632-25.957-7.624c-2.594-4.752-21.556-42.832-43.491-88.542    c4.962-10.372,10.063-21.112,15.172-31.966C312.072,418.625,339.012,463.801,341.517,468.5z M303.577,264.656    c-5.233-2.856-15.799-13.399-10.078-27.743c5.097,5.897,10.924,10.687,17.446,14.247c6.496,3.547,13.678,5.876,21.444,6.971    C325.704,267.055,313.442,270.042,303.577,264.656z M342.989,243.653c-9.329,0-17.658-1.965-24.757-5.84    c-16.608-9.067-27.989-29.978-32.315-58.576c13.968,12.42,29.533,23.351,46.491,32.607c16.958,9.258,34.572,16.439,52.574,21.472    C370.587,239.781,356.159,243.653,342.989,243.653z M405.237,222.545c-22.507-4.509-44.545-12.586-65.541-24.049    c-20.996-11.462-39.707-25.629-55.669-42.121c-0.346-16.879,1.443-34.41,4.974-50.598c18.934,22.574,42.928,42.109,70.197,56.995    c27.279,14.892,56.697,24.511,85.936,28.227C433.451,202.705,419.685,213.677,405.237,222.545z M457.808,176.994    c-30.845-2.262-62.337-11.745-91.324-27.569c-28.982-15.822-53.986-37.177-72.568-61.892c2.684-8.241,10.76-29.572,19.615-37.434    c19.436,24.393,44.737,45.476,73.715,61.294c28.981,15.821,60.402,25.702,91.435,28.857    C474.67,155.631,463.274,170.286,457.808,176.994z M482.176,125.324c-29.658-2.723-59.818-12.089-87.643-27.279    c-27.822-15.188-52.008-35.489-70.337-58.958c17.229-15.145,39.63-23.878,63.342-23.878c15.909,0,31.75,4.057,45.811,11.733    C469.593,46.727,487.969,86.678,482.176,125.324z" fill="#2a333c"/>
	</g>
</g>
<g>
	<g>
		<path d="M195.633,411.661c-3.59-2.178-8.266-1.031-10.445,2.561l-4.056,6.7c-2.174,3.594-0.961,8.174,2.573,10.442    c4.543,2.915,9.012-0.21,10.441-2.573l4.047-6.686C200.37,418.514,199.224,413.838,195.633,411.661z" fill="#2a333c"/>
	</g>
</g>
<g>
	<g>
		<path d="M467.821,100.346c-0.299-4.189-3.919-7.35-8.126-7.044c-4.189,0.298-7.343,3.936-7.044,8.125    c0.139,1.956,0.094,3.937,0.154,5.887c0.236,7.748,7.556,7.748,7.606,7.748c4.132,0,7.521-3.31,7.601-7.459    C468.057,105.197,467.993,102.756,467.821,100.346z" fill="#2a333c"/>
	</g>
</g>
<g>
	<g>
		<path d="M462.527,76.761c-3.597-9.272-8.792-17.688-15.44-25.013c-2.821-3.111-7.63-3.343-10.741-0.521    c-3.111,2.822-3.344,7.631-0.521,10.741c5.39,5.939,9.603,12.768,12.524,20.296c1.169,3.01,5.706,6.114,9.84,4.338    C462.047,84.944,464.046,80.677,462.527,76.761z" fill="#2a333c"/>
	</g>
</g>
<g>
</g>
<g>
</g>
<g>
</g>
<g>
</g>
<g>
</g>
<g>
</g>
<g>
</g>
<g>
</g>
<g>
</g>
<g>
</g>
<g>
</g>
<g>
</g>
<g>
</g>
<g>
</g>
<g>
</g>
</svg>
