<?xml version="1.0" encoding="iso-8859-1"?>
<!-- Generator: Adobe Illustrator 19.0.0, SVG Export Plug-In . SVG Version: 6.00 Build 0)  -->
<svg xmlns="http://www.w3.org/2000/svg" xmlns:xlink="http://www.w3.org/1999/xlink" version="1.1" id="Layer_1" x="0px" y="0px" viewBox="0 0 472.799 472.799" style="enable-background:new 0 0 472.799 472.799;" xml:space="preserve" width="512px" height="512px">
<g>
	<g>
		<g>
			<path d="M223.736,270.286c1.919,0,3.839-0.732,5.303-2.197c2.929-2.929,2.929-7.677,0-10.606l-13.724-13.724     c-2.929-2.929-7.678-2.929-10.606,0c-2.929,2.929-2.929,7.677,0,10.606l13.724,13.724     C219.897,269.554,221.817,270.286,223.736,270.286z" fill="#2a333c"/>
			<path d="M170.511,263.815c-2.929,2.929-2.929,7.677,0,10.606l27.866,27.866c1.464,1.465,3.384,2.197,5.303,2.197     s3.839-0.732,5.303-2.197c2.929-2.929,2.929-7.677,0-10.606l-27.866-27.866C178.189,260.885,173.44,260.885,170.511,263.815z" fill="#2a333c"/>
			<circle cx="202.835" cy="345.239" r="7.5" fill="#2a333c"/>
			<circle cx="195.841" cy="373.777" r="7.5" fill="#2a333c"/>
			<path d="M470.602,50.136l-7.455-7.455l4.094-7.369c4.717-8.49,3.211-19.22-3.662-26.093c-4.132-4.133-9.627-6.409-15.472-6.409     c-3.714,0-7.387,0.95-10.621,2.747l-7.369,4.094l-7.455-7.455c-2.929-2.929-7.678-2.928-10.606,0     c-2.929,2.929-2.929,7.678,0,10.607l4.425,4.425l-8.152,4.529l-7.456-7.456c-2.929-2.929-7.678-2.929-10.606,0     c-2.929,2.929-2.929,7.678,0,10.607l4.425,4.425l-8.152,4.529l-7.391-7.391c-2.929-2.929-7.678-2.929-10.606,0     c-2.929,2.929-2.929,7.677,0,10.606l4.64,4.64c-0.536,0.443-1.06,0.903-1.554,1.397c-7.729,7.729-8.431,19.836-2.155,28.39     L266.17,170.118c-5.349-0.134-10.685,0.853-15.616,2.946l-234.315,99.39c-3.167,1.344-6.006,3.258-8.439,5.691     c-10.399,10.4-10.399,27.322,0,37.721c5.039,5.039,11.792,7.813,18.84,7.813c0.86,0,1.725-0.041,2.59-0.125l-0.005-0.056     c1.125-0.052,2.513-0.185,4.304-0.358l23.214-2.237l-1.438-14.931c0,0-26.626,2.566-27.484,2.648     c-3.516,0.338-6.94-0.887-9.415-3.361c-4.551-4.551-4.551-11.957,0-16.508c1.063-1.063,2.305-1.901,3.69-2.488l220.29-93.441     L223,211.329c-1.461,1.395-2.297,3.319-2.321,5.338c-0.023,2.019,0.769,3.963,2.196,5.39l27.866,27.866     c1.407,1.407,3.315,2.197,5.303,2.197c0.029,0,0.058,0,0.087,0c2.02-0.023,3.944-0.86,5.338-2.321l18.508-19.388l-93.441,220.29     c-0.588,1.385-1.425,2.627-2.488,3.69c-4.551,4.552-11.957,4.552-16.508,0c-2.474-2.474-3.701-5.895-3.365-9.385l11.439-118.704     c0.768-7.965-2.035-15.776-7.689-21.43s-13.466-8.457-21.43-7.689l-61.329,5.91c-4.123,0.397-7.144,4.062-6.746,8.185     c0.397,4.123,4.068,7.145,8.185,6.746l61.329-5.91c3.493-0.333,6.91,0.891,9.385,3.365c2.475,2.475,3.701,5.895,3.365,9.385     L149.243,443.57c-0.767,7.965,2.036,15.776,7.689,21.429c5.2,5.2,12.03,7.8,18.86,7.8c6.831,0,13.661-2.6,18.861-7.8     c2.432-2.432,4.346-5.271,5.691-8.439l99.389-234.313c2.095-4.933,3.082-10.269,2.948-15.619l98.611-103.299     c3.729,2.745,8.205,4.25,12.922,4.25c5.844,0,11.338-2.276,15.472-6.409c0.494-0.494,0.953-1.018,1.396-1.554l4.64,4.64     c1.464,1.465,3.384,2.197,5.303,2.197s3.839-0.732,5.303-2.197c2.929-2.929,2.929-7.677,0-10.606l-7.391-7.391l4.529-8.152     l4.425,4.425c1.464,1.465,3.384,2.197,5.303,2.197s3.839-0.732,5.303-2.197c2.929-2.929,2.929-7.678,0-10.607l-7.456-7.456     l4.529-8.152l4.425,4.425c1.464,1.464,3.384,2.197,5.303,2.197s3.839-0.732,5.303-2.197     C473.531,57.814,473.531,53.065,470.602,50.136z M255.92,233.889l-17.011-17.01L379.878,82.307l10.613,10.613L255.92,233.889z      M454.128,28.029l-31.134,56.042c-0.004,0.006-2.759,4.967-2.759,4.967c-0.309,0.553-0.698,1.068-1.157,1.527     c-1.299,1.3-3.027,2.015-4.865,2.015s-3.565-0.716-4.865-2.015L382.234,63.45c-2.683-2.683-2.683-7.047,0-9.73     c0.458-0.458,0.973-0.847,1.528-1.156l4.956-2.753c0.024-0.014,56.053-31.14,56.053-31.14c1.011-0.562,2.165-0.859,3.336-0.859     c1.838,0,3.565,0.716,4.865,2.015C455.134,21.989,455.609,25.362,454.128,28.029z" fill="#2a333c"/>
		</g>
	</g>
</g>
<g>
</g>
<g>
</g>
<g>
</g>
<g>
</g>
<g>
</g>
<g>
</g>
<g>
</g>
<g>
</g>
<g>
</g>
<g>
</g>
<g>
</g>
<g>
</g>
<g>
</g>
<g>
</g>
<g>
</g>
</svg>
